<svg width="167" height="49" viewBox="0 0 167 49" fill="none" xmlns="http://www.w3.org/2000/svg">
<path d="M165.844 42.4101C165.844 43.0128 165.721 43.6096 165.483 44.1663C165.244 44.7231 164.895 45.2289 164.454 45.6548C164.014 46.0808 163.491 46.4185 162.915 46.6487C162.34 46.8789 161.723 46.9971 161.1 46.9964H5.85173C4.59343 46.9977 3.38613 46.5153 2.49534 45.6552C1.60455 44.7951 1.1032 43.6279 1.10156 42.4101V5.83573C1.1032 4.61743 1.60435 3.44956 2.49496 2.58854C3.38558 1.72752 4.59286 1.24374 5.85173 1.24342H161.099C161.722 1.24342 162.339 1.36222 162.915 1.59302C163.49 1.82382 164.013 2.1621 164.454 2.58855C164.894 3.015 165.244 3.52126 165.482 4.07842C165.72 4.63558 165.843 5.23272 165.843 5.83573L165.844 42.4101Z" fill="white"/>
<path d="M161.1 48.0634H5.8514C4.30133 48.0631 2.81469 47.4677 1.71769 46.4079C0.620697 45.348 0.00294937 43.9103 0 42.4102L0 5.83696C0.00229311 4.33609 0.619633 2.89738 1.71659 1.83644C2.81355 0.775504 4.30056 0.178971 5.8514 0.177704L161.099 0.177704C162.649 0.179603 164.136 0.776339 165.233 1.83714C166.329 2.89794 166.947 4.33628 166.95 5.83696V42.4102C166.952 45.5284 164.323 48.0634 161.1 48.0634Z" fill="#A6A6A6"/>
<path d="M165.844 42.4101C165.844 43.0128 165.721 43.6096 165.483 44.1663C165.244 44.7231 164.895 45.2289 164.454 45.6548C164.014 46.0808 163.491 46.4185 162.915 46.6487C162.34 46.8789 161.723 46.9971 161.1 46.9964H5.85173C4.59343 46.9977 3.38613 46.5153 2.49534 45.6552C1.60455 44.7951 1.1032 43.6279 1.10156 42.4101V5.83573C1.1032 4.61743 1.60435 3.44956 2.49496 2.58854C3.38558 1.72752 4.59286 1.24374 5.85173 1.24342H161.099C161.722 1.24342 162.339 1.36222 162.915 1.59302C163.49 1.82382 164.013 2.1621 164.454 2.58855C164.894 3.015 165.244 3.52126 165.482 4.07842C165.72 4.63558 165.843 5.23272 165.843 5.83573L165.844 42.4101Z" fill="black"/>
<path d="M37.2788 23.8685C37.243 20.009 40.5442 18.1314 40.6952 18.044C38.8255 15.4059 35.9277 15.0455 34.9093 15.0168C32.4755 14.7689 30.1146 16.4262 28.8748 16.4262C27.6102 16.4262 25.701 15.0407 23.6433 15.0814C20.9954 15.1209 18.5182 16.6046 17.1596 18.9086C14.3558 23.6062 16.4469 30.5097 19.1332 34.3068C20.4769 36.1677 22.0471 38.2429 24.1024 38.1699C26.1131 38.0909 26.8641 36.9305 29.2906 36.9305C31.6947 36.9305 32.4 38.1699 34.4961 38.1232C36.654 38.0909 38.0126 36.2551 39.3093 34.3787C40.8622 32.2484 41.4858 30.148 41.5106 30.0403C41.4611 30.0235 37.3209 28.4931 37.2788 23.8685ZM33.3193 12.5188C34.4008 11.21 35.1407 9.42936 34.9353 7.62238C33.3701 7.68943 31.4126 8.67016 30.2854 9.95026C29.2881 11.0783 28.3972 12.9272 28.6273 14.6659C30.3856 14.7928 32.1909 13.8073 33.3193 12.5188Z" fill="white"/>
<path d="M161.099 0.177689H77.9434L110.514 48.0634H161.099C162.65 48.0621 164.136 47.4659 165.233 46.4055C166.33 45.3451 166.948 43.907 166.951 42.4066V5.83694C166.948 4.33617 166.33 2.89765 165.234 1.83678C164.137 0.775907 162.65 0.179272 161.099 0.177689V0.177689Z" fill="url(#paint0_linear_634_683)"/>
<path d="M66.4016 37.9028H63.5916L62.0523 33.2219H56.702L55.2358 37.9028H52.5L57.802 21.9669H61.076L66.4016 37.9028ZM61.5883 31.258L60.1963 27.0968C60.049 26.6717 59.7719 25.6706 59.366 24.0948H59.3165C59.1532 24.7725 58.8921 25.7736 58.5345 27.0968L57.166 31.258H61.5883ZM80.0099 32.016C80.0099 33.9703 79.4617 35.5151 78.3642 36.6491C77.3818 37.6585 76.1605 38.1627 74.7041 38.1627C73.1315 38.1627 72.0005 37.6202 71.3138 36.5329V42.5622H68.6758V30.1887C68.6758 28.9613 68.6424 27.7028 68.5781 26.4119H70.8981L71.0453 28.2332H71.0948C71.9746 26.8609 73.3097 26.1748 75.1013 26.1748C76.502 26.1748 77.6713 26.71 78.6067 27.7818C79.5409 28.8559 80.0099 30.2665 80.0099 32.016ZM77.3224 32.1094C77.3224 30.991 77.0625 30.069 76.5404 29.3421C75.97 28.5865 75.204 28.2081 74.2439 28.2081C73.593 28.2081 73.0016 28.4188 72.4732 28.8344C71.9436 29.2535 71.5972 29.8007 71.4351 30.4785C71.3627 30.732 71.3216 30.9928 71.3126 31.2556V33.1728C71.3126 34.0074 71.5774 34.7128 72.107 35.2899C72.6365 35.8647 73.3245 36.1533 74.1709 36.1533C75.1644 36.1533 75.9378 35.7809 76.4909 35.0421C77.0452 34.3008 77.3224 33.3237 77.3224 32.1094ZM93.6665 32.016C93.6665 33.9703 93.1183 35.5151 92.0208 36.6491C91.0371 37.6585 89.8171 38.1627 88.3595 38.1627C86.7868 38.1627 85.6559 37.6202 84.9692 36.5329V42.5622H82.3311V30.1887C82.3311 28.9613 82.2977 27.7028 82.2334 26.4119H84.5534L84.7007 28.2332H84.7502C85.6287 26.8609 86.9638 26.1748 88.7567 26.1748C90.1561 26.1748 91.3254 26.71 92.2633 27.7818C93.1963 28.8559 93.6665 30.2665 93.6665 32.016ZM90.9777 32.1094C90.9777 30.991 90.7166 30.069 90.1945 29.3421C89.624 28.5865 88.8606 28.2081 87.9004 28.2081C87.2496 28.2081 86.6581 28.4188 86.1273 28.8344C85.5977 29.2535 85.2525 29.8007 85.0904 30.4785C85.01 30.7946 84.9667 31.0521 84.9667 31.2556V33.1728C84.9667 34.0074 85.2327 34.7128 85.7598 35.2899C86.2894 35.8635 86.9774 36.1533 87.8262 36.1533C88.821 36.1533 89.5944 35.7809 90.1462 35.0421C90.7005 34.3008 90.9777 33.3237 90.9777 32.1094ZM108.935 33.4327C108.935 34.7894 108.445 35.8923 107.472 36.7437C106.4 37.6729 104.904 38.1387 102.986 38.1387C101.214 38.1387 99.7938 37.8082 98.7222 37.146L99.3323 35.0181C100.489 35.6815 101.76 36.012 103.143 36.012C104.138 36.012 104.911 35.7941 105.463 35.3618C106.016 34.9283 106.296 34.3487 106.296 33.6254C106.296 32.9776 106.065 32.4352 105.611 31.9933C105.154 31.5526 104.399 31.1419 103.339 30.7647C100.456 29.7241 99.013 28.2021 99.013 26.1999C99.013 24.8923 99.5228 23.8217 100.54 22.9847C101.557 22.1489 102.906 21.731 104.584 21.731C106.082 21.731 107.33 21.9836 108.322 22.4878L107.66 24.569C106.727 24.0804 105.674 23.8361 104.496 23.8361C103.565 23.8361 102.835 24.0576 102.313 24.4983C101.874 24.8923 101.651 25.3725 101.651 25.9425C101.651 26.5711 101.905 27.0932 102.41 27.5028C102.848 27.88 103.647 28.2907 104.803 28.7314C106.221 29.2846 107.262 29.9289 107.929 30.6689C108.601 31.4089 108.935 32.3322 108.935 33.4327ZM117.68 28.3278H114.772V33.9069C114.772 35.3259 115.284 36.0336 116.311 36.0336C116.783 36.0336 117.174 35.9952 117.483 35.915L117.556 37.8537C117.036 38.0417 116.352 38.1363 115.504 38.1363C114.463 38.1363 113.648 37.8286 113.061 37.2131C112.475 36.5976 112.181 35.5666 112.181 34.1152V28.323H110.449V26.4071H112.181V24.3031L114.772 23.5463V26.4071H117.68V28.3278ZM130.773 32.0627C130.773 33.829 130.251 35.2792 129.209 36.4132C128.119 37.5807 126.669 38.1627 124.861 38.1627C123.117 38.1627 121.729 37.6034 120.695 36.4862C119.661 35.3666 119.143 33.956 119.143 32.2543C119.143 30.4737 119.678 29.0152 120.743 27.8812C121.811 26.746 123.249 26.1784 125.057 26.1784C126.799 26.1784 128.198 26.7388 129.257 27.8572C130.27 28.9421 130.773 30.3432 130.773 32.0627ZM128.039 32.1214C128.039 31.0688 127.804 30.166 127.332 29.4103C126.779 28.4979 125.987 28.0416 124.961 28.0416C123.905 28.0416 123.094 28.4979 122.542 29.4103C122.07 30.166 121.835 31.0844 121.835 32.1693C121.835 33.2231 122.07 34.1284 122.542 34.8816C123.113 35.7941 123.908 36.2503 124.939 36.2503C125.948 36.2503 126.738 35.7845 127.31 34.8588C127.795 34.0853 128.039 33.1764 128.039 32.1214ZM139.352 28.6571C139.077 28.6092 138.799 28.5856 138.52 28.5865C137.592 28.5865 136.875 28.9242 136.37 29.6043C135.932 30.2031 135.711 30.9599 135.711 31.8735V37.9028H133.073V30.0306C133.076 28.8244 133.05 27.6182 132.997 26.4131H135.294L135.391 28.6116H135.464C135.744 27.856 136.182 27.2465 136.783 26.7903C137.333 26.3916 138.002 26.1757 138.69 26.1748C138.933 26.1748 139.154 26.1915 139.349 26.2215L139.352 28.6571ZM151.15 31.6137C151.156 32.0018 151.124 32.3896 151.053 32.7717H143.139C143.169 33.9069 143.552 34.7762 144.287 35.375C144.954 35.909 145.817 36.1773 146.876 36.1773C148.048 36.1773 149.117 35.9976 150.078 35.6348L150.492 37.4059C149.368 37.8801 148.042 38.116 146.511 38.116C144.67 38.116 143.225 37.5915 142.173 36.5449C141.124 35.4971 140.598 34.0889 140.598 32.325C140.598 30.5934 141.086 29.1505 142.065 27.9997C143.09 26.7711 144.474 26.1568 146.216 26.1568C147.928 26.1568 149.223 26.7711 150.103 27.9997C150.8 28.9733 151.15 30.1803 151.15 31.6137ZM148.634 30.9515C148.653 30.1935 148.48 29.5409 148.122 28.9888C147.665 28.2775 146.963 27.9231 146.021 27.9231C145.159 27.9231 144.456 28.2692 143.921 28.9637C143.482 29.5157 143.221 30.1791 143.14 30.9491L148.634 30.9515Z" fill="white"/>
<path d="M55.9437 16.3328C55.21 16.3328 54.5752 16.2981 54.0469 16.2394V8.53484C54.7858 8.42437 55.5326 8.36992 56.2803 8.37199C59.3056 8.37199 60.6988 9.81255 60.6988 12.1608C60.6988 14.8695 59.0532 16.3328 55.9437 16.3328ZM56.3867 9.3599C55.9784 9.3599 55.6307 9.38385 55.3424 9.44133V15.2982C55.4983 15.3221 55.7977 15.3329 56.2184 15.3329C58.2006 15.3329 59.3291 14.2408 59.3291 12.1955C59.3291 10.3718 58.3083 9.3599 56.3867 9.3599ZM65.0407 16.3915C63.3356 16.3915 62.2307 15.1593 62.2307 13.4864C62.2307 11.7429 63.3591 10.4999 65.1372 10.4999C66.8175 10.4999 67.9472 11.6734 67.9472 13.3942C67.9472 15.1593 66.7829 16.3915 65.0407 16.3915ZM65.0902 11.4172C64.1535 11.4172 63.5534 12.265 63.5534 13.4505C63.5534 14.6132 64.1659 15.461 65.0778 15.461C65.9897 15.461 66.6022 14.5545 66.6022 13.4265C66.6022 12.2769 66.0021 11.4172 65.0902 11.4172ZM77.6703 10.616L75.8452 16.2633H74.6561L73.9001 13.8109C73.7121 13.211 73.5556 12.6023 73.4311 11.9872H73.4064C73.3111 12.6027 73.1304 13.2194 72.9387 13.8109L72.1344 16.2633H70.9329L69.2155 10.616H70.5481L71.2088 13.3008C71.3647 13.9402 71.4959 14.5438 71.6048 15.1138H71.6295C71.7248 14.6384 71.8807 14.0444 72.1096 13.3128L72.9387 10.6172H73.9953L74.7885 13.2553C74.9803 13.8947 75.1362 14.5222 75.2574 15.115H75.2921C75.3762 14.5342 75.5086 13.9175 75.688 13.2553L76.397 10.6172L77.6703 10.616ZM84.389 16.2633H83.0923V13.0206C83.0923 12.0219 82.6963 11.5213 81.9156 11.5213C81.1472 11.5213 80.6188 12.1608 80.6188 12.9044V16.2633H79.3221V12.2302C79.3221 11.7309 79.3097 11.1956 79.2739 10.6149H80.4147L80.4753 11.4866H80.5112C80.8601 10.8831 81.5679 10.4999 82.361 10.4999C83.586 10.4999 84.3903 11.4064 84.3903 12.8817L84.389 16.2633ZM87.965 16.2633H86.667V8.02472H87.965V16.2633ZM92.6929 16.3915C90.989 16.3915 89.8828 15.1593 89.8828 13.4864C89.8828 11.7429 91.0113 10.4999 92.7881 10.4999C94.4697 10.4999 95.5981 11.6734 95.5981 13.3942C95.5994 15.1593 94.4338 16.3915 92.6929 16.3915ZM92.7411 11.4172C91.8044 11.4172 91.2043 12.265 91.2043 13.4505C91.2043 14.6132 91.8181 15.461 92.7275 15.461C93.6407 15.461 94.2519 14.5545 94.2519 13.4265C94.2531 12.2769 93.6543 11.4172 92.7411 11.4172ZM100.711 16.2633L100.617 15.6131H100.582C100.186 16.1364 99.6084 16.3915 98.8759 16.3915C97.8303 16.3915 97.0879 15.6826 97.0879 14.7294C97.0879 13.3355 98.3364 12.6146 100.498 12.6146V12.5105C100.498 11.7668 100.091 11.3944 99.2867 11.3944C98.7113 11.3944 98.2065 11.5345 97.7623 11.8135L97.4987 10.9885C98.0382 10.6628 98.7113 10.4999 99.502 10.4999C101.026 10.4999 101.796 11.2783 101.796 12.8362V14.9162C101.796 15.4862 101.822 15.928 101.88 16.2645L100.711 16.2633ZM100.533 13.4505C99.0924 13.4505 98.3698 13.7882 98.3698 14.5893C98.3698 15.182 98.7422 15.4718 99.2594 15.4718C99.919 15.4718 100.533 14.9844 100.533 14.3222V13.4505ZM108.093 16.2633L108.032 15.3568H107.996C107.624 16.0418 106.998 16.3915 106.123 16.3915C104.716 16.3915 103.674 15.194 103.674 13.5091C103.674 11.7429 104.754 10.4987 106.229 10.4987C107.01 10.4987 107.563 10.7538 107.875 11.2663H107.901V8.02472H109.199V14.7413C109.199 15.2874 109.213 15.7987 109.247 16.2633H108.093ZM107.901 12.9403C107.901 12.15 107.36 11.4758 106.535 11.4758C105.574 11.4758 104.986 12.3009 104.986 13.4624C104.986 14.6012 105.596 15.3808 106.509 15.3808C107.324 15.3808 107.901 14.6946 107.901 13.8816V12.9403ZM117.429 16.3915C115.725 16.3915 114.62 15.1593 114.62 13.4864C114.62 11.7429 115.748 10.4999 117.525 10.4999C119.207 10.4999 120.335 11.6734 120.335 13.3942C120.336 15.1593 119.172 16.3915 117.429 16.3915ZM117.477 11.4172C116.541 11.4172 115.941 12.265 115.941 13.4505C115.941 14.6132 116.554 15.461 117.464 15.461C118.378 15.461 118.989 14.5545 118.989 13.4265C118.991 12.2769 118.391 11.4172 117.477 11.4172ZM127.309 16.2633H126.011V13.0206C126.011 12.0219 125.615 11.5213 124.834 11.5213C124.066 11.5213 123.539 12.1608 123.539 12.9044V16.2633H122.241V12.2302C122.241 11.7309 122.228 11.1956 122.192 10.6149H123.333L123.394 11.4866H123.43C123.777 10.8831 124.486 10.4987 125.278 10.4987C126.503 10.4987 127.309 11.4052 127.309 12.8805V16.2633ZM136.033 11.5573H134.607V14.2995C134.607 14.9976 134.857 15.3461 135.361 15.3461C135.59 15.3461 135.782 15.3221 135.937 15.2874L135.973 16.2406C135.722 16.334 135.385 16.3807 134.967 16.3807C133.945 16.3807 133.333 15.8346 133.333 14.4049V11.5573H132.482V10.616H133.333V9.58143L134.607 9.20902V10.6149H136.033V11.5573ZM142.898 16.2633H141.603V13.0445C141.603 12.0339 141.208 11.5225 140.426 11.5225C139.754 11.5225 139.128 11.9644 139.128 12.8589V16.2633H137.832V8.02472H139.128V11.4172H139.154C139.562 10.8017 140.154 10.4987 140.908 10.4987C142.143 10.4987 142.898 11.4279 142.898 12.9044V16.2633ZM149.931 13.7415H146.04C146.064 14.8108 146.796 15.4143 147.878 15.4143C148.454 15.4143 148.983 15.3209 149.451 15.1473L149.653 16.019C149.101 16.2514 148.451 16.3675 147.695 16.3675C145.87 16.3675 144.79 15.2515 144.79 13.5211C144.79 11.7896 145.896 10.4879 147.549 10.4879C149.04 10.4879 149.976 11.5573 149.976 13.1727C149.984 13.3633 149.969 13.5542 149.931 13.7415ZM148.742 12.8469C148.742 11.9752 148.288 11.3597 147.459 11.3597C146.714 11.3597 146.125 11.9872 146.041 12.8469H148.742Z" fill="white"/>
<defs>
<linearGradient id="paint0_linear_634_683" x1="122.446" y1="48.1905" x2="122.446" y2="-124.508" gradientUnits="userSpaceOnUse">
<stop stop-color="#1A1A1A" stop-opacity="0.1"/>
<stop offset="0.123" stop-color="#212121" stop-opacity="0.151"/>
<stop offset="0.308" stop-color="#353535" stop-opacity="0.227"/>
<stop offset="0.532" stop-color="#575757" stop-opacity="0.318"/>
<stop offset="0.783" stop-color="#858585" stop-opacity="0.421"/>
<stop offset="1" stop-color="#B3B3B3" stop-opacity="0.51"/>
</linearGradient>
</defs>
</svg>
