<svg width="242" height="49" viewBox="0 0 242 49" fill="none" xmlns="http://www.w3.org/2000/svg">
<ellipse cx="23.4663" cy="25.0317" rx="23.4663" ry="23.7598" fill="#DC7E49"/>
<path fill-rule="evenodd" clip-rule="evenodd" d="M62.8876 13.6611C62.506 13.7468 62.0903 13.6261 61.8196 13.3037L57.3584 7.96072L53.3561 25.1468C53.2582 25.5633 52.9389 25.883 52.536 25.9735L41.2784 28.5035C40.9392 28.5797 40.5836 28.4793 40.321 28.2452L31.9049 20.6352L18.9406 23.5487C18.5696 23.6321 18.1881 23.5149 17.9291 23.2463C17.6572 22.9693 17.5514 22.5873 17.6375 22.2185L18.8458 16.9652C18.9331 16.5511 19.263 16.229 19.6658 16.1385L41.2553 11.3204L42.0453 9.13662C42.168 8.7822 42.4672 8.52333 42.8276 8.44234L55.3785 5.62173L52.6206 2.31922L49.9281 2.92432C49.3451 3.05534 48.7623 2.67912 48.633 2.08827C48.5037 1.49742 48.8749 0.906801 49.4579 0.775775L52.7865 0.0277416C53.1893 -0.0627852 53.5967 0.0710712 53.8545 0.385082L63.456 11.8877C63.8468 12.3522 63.7865 13.042 63.347 13.4226C63.2174 13.5419 63.0572 13.6229 62.8876 13.6611ZM41.3359 26.2251L51.3851 23.9667L53.2754 15.8325L40.3535 18.7365C39.9613 18.8247 39.5644 18.6884 39.2984 18.3875C39.043 18.0843 38.9619 17.6629 39.101 17.2822L40.3686 13.7739L20.8038 18.1369L20.143 21.013L31.9625 18.3568C32.3017 18.2805 32.6573 18.381 32.9198 18.615L41.3359 26.2251ZM41.8209 16.1413L53.8099 13.4469L55.1066 7.93703L43.8808 10.4599L41.8209 16.1413ZM61.3076 6.54344C61.8906 6.41241 62.2618 5.82179 62.1326 5.23094L61.3639 1.71807C61.2346 1.12722 60.6518 0.751 60.0688 0.882025C59.4857 1.01305 59.1145 1.60367 59.2438 2.19452L60.0125 5.70739C60.1418 6.29824 60.7246 6.67446 61.3076 6.54344ZM73.1616 5.92398C76.3828 5.92398 79.2089 6.57733 81.6399 7.88403C84.071 9.19072 85.9551 11.014 87.2922 13.3539C88.6596 15.6938 89.3434 18.4439 89.3434 21.6043C89.3434 24.6128 88.7052 27.3477 87.4289 29.8092C86.1526 32.2402 84.3293 34.1699 81.959 35.5981C79.5887 37.0264 76.7626 37.7405 73.4807 37.7405C71.3839 37.7405 69.2871 37.6341 67.1903 37.4214C65.1239 37.2087 63.1639 36.92 61.3102 36.5554V28.3582H61.4893C59.8147 27.4046 58.5316 25.7214 58.0657 23.5926C57.1983 19.6285 59.4364 15.8795 63.1678 15.0409C64.9804 14.6336 66.8387 14.9936 68.4022 16.0399C69.9552 17.0885 71.0297 18.6954 71.4434 20.5861C72.1863 23.9812 70.5581 27.2295 67.6461 28.5816V31.3134C68.5578 31.4957 69.4998 31.6325 70.4723 31.7236C71.4751 31.7844 72.4171 31.8148 73.2984 31.8148C75.304 31.8148 77.0209 31.3893 78.4492 30.5385C79.8774 29.6572 80.9714 28.4569 81.7311 26.9375C82.4908 25.4181 82.8707 23.7163 82.8707 21.8322C82.8707 19.8874 82.4908 18.1705 81.7311 16.6814C80.9714 15.1924 79.8774 14.0225 78.4492 13.1716C77.0209 12.2903 75.304 11.8497 73.2984 11.8497C72.3867 11.8497 71.4295 11.8953 70.4267 11.9864C70.2423 12.0032 70.0606 12.021 69.8814 12.0398V6.02854C70.9617 5.95884 72.0551 5.92398 73.1616 5.92398ZM104.294 6.06073C106.057 6.06073 107.667 6.30384 109.126 6.79005C110.585 7.27626 111.815 7.83844 112.818 8.4766V14.7214C111.724 14.0528 110.554 13.4299 109.308 12.8525C108.063 12.2751 106.649 11.9864 105.069 11.9864C104.279 11.9864 103.489 12.108 102.699 12.3511C101.939 12.5942 101.301 12.9589 100.785 13.4451C100.298 13.9313 100.055 14.5542 100.055 15.314C100.055 16.3168 100.496 17.0765 101.377 17.5931C102.258 18.1097 103.337 18.6263 104.613 19.1429L108.351 20.6927C110.478 21.6043 112.043 22.7135 113.046 24.0202C114.049 25.3269 114.55 26.8159 114.55 28.4873C114.55 30.3106 114.019 31.9211 112.955 33.319C111.922 34.6865 110.524 35.7653 108.761 36.5554C107.029 37.3454 105.1 37.7405 102.972 37.7405C101.18 37.7405 99.4627 37.4366 97.8217 36.8288C96.1807 36.2211 94.7525 35.4766 93.5369 34.5953V28.3505C94.874 29.3229 96.3479 30.1434 97.9584 30.812C99.569 31.4805 101.286 31.8148 103.109 31.8148C104.386 31.8148 105.48 31.5717 106.391 31.0855C107.303 30.5689 107.759 29.8092 107.759 28.8063C107.759 28.0162 107.379 27.3781 106.619 26.8919C105.89 26.3753 105.084 25.9498 104.203 25.6156L99.5082 23.7923C97.138 22.8806 95.5274 21.6955 94.6765 20.2369C93.856 18.7478 93.4458 17.1069 93.4458 15.314C93.4458 13.4603 93.9472 11.8497 94.95 10.4822C95.9832 9.08436 97.3203 8.00558 98.9612 7.24587C100.602 6.45578 102.38 6.06073 104.294 6.06073ZM133.102 13.5818C134.926 13.5818 136.612 14.0528 138.162 14.9949C139.742 15.9065 141.003 17.2588 141.945 19.0517C142.918 20.8142 143.404 22.9718 143.404 25.5244C143.404 28.077 142.918 30.2802 141.945 32.1339C141.003 33.9875 139.712 35.4158 138.071 36.4186C136.46 37.391 134.667 37.8772 132.692 37.8772C131.416 37.8772 130.14 37.5734 128.863 36.9656C127.617 36.3274 126.569 35.5373 125.718 34.5953V48.1333H119.929V14.1744H125.718V18.0489C126.387 16.803 127.359 15.7546 128.635 14.9037C129.912 14.0225 131.401 13.5818 133.102 13.5818ZM131.644 19.3708C130.611 19.3708 129.638 19.6443 128.727 20.1913C127.815 20.7079 127.07 21.4524 126.493 22.4248C125.946 23.3972 125.688 24.5672 125.718 25.9347V29.2622C126.539 30.113 127.42 30.8272 128.362 31.4045C129.334 31.9515 130.383 32.225 131.507 32.225C132.692 32.225 133.725 31.9059 134.607 31.2678C135.488 30.6296 136.172 29.8092 136.658 28.8063C137.144 27.7731 137.387 26.6792 137.387 25.5244C137.387 23.7923 136.855 22.3336 135.792 21.1485C134.759 19.9634 133.376 19.3708 131.644 19.3708ZM158.036 13.5818C159.282 13.5818 160.543 13.8705 161.819 14.4479C163.096 15.0253 164.159 15.8002 165.01 16.7726V14.1744H170.799V37.1935H165.01V33.319C164.342 34.5649 163.369 35.6437 162.093 36.5554C160.817 37.4366 159.328 37.8772 157.626 37.8772C155.772 37.8772 154.055 37.4062 152.475 36.4642C150.925 35.5221 149.679 34.1547 148.737 32.3618C147.795 30.5689 147.324 28.3961 147.324 25.8435C147.324 23.2909 147.795 21.1029 148.737 19.2796C149.71 17.4563 151.001 16.0585 152.612 15.086C154.253 14.0832 156.061 13.5818 158.036 13.5818ZM159.221 19.234C158.006 19.234 156.957 19.5531 156.076 20.1913C155.225 20.799 154.557 21.6043 154.07 22.6071C153.584 23.61 153.341 24.6887 153.341 25.8435C153.341 27.5756 153.858 29.0494 154.891 30.265C155.954 31.4805 157.352 32.0883 159.084 32.0883C160.118 32.0883 161.075 31.8148 161.956 31.2678C162.868 30.7208 163.597 29.9611 164.144 28.9887C164.721 27.9859 165.01 26.7855 165.01 25.3877V22.1057C164.19 21.2245 163.293 20.5255 162.321 20.0089C161.379 19.4923 160.346 19.234 159.221 19.234ZM186.252 7.47378V14.1744H192.633V19.0061H186.252V28.9431C186.252 29.9763 186.479 30.7968 186.935 31.4045C187.421 31.9819 188.136 32.2706 189.078 32.2706C189.898 32.2706 190.597 32.1794 191.174 31.9971C191.782 31.8148 192.344 31.5565 192.861 31.2222V35.826C192.284 36.4034 191.554 36.8896 190.673 37.2847C189.822 37.6797 188.743 37.8772 187.437 37.8772C185.37 37.8772 183.684 37.2239 182.377 35.9172C181.101 34.5801 180.463 32.7568 180.463 30.4473V19.0061H176.315V16.0433C177.773 15.5267 179.11 14.5542 180.326 13.126C181.572 11.6978 182.559 9.81368 183.289 7.47378H186.252ZM209.043 13.5818C210.744 13.5818 212.142 13.8553 213.236 14.4023C214.33 14.9493 215.196 15.4811 215.835 15.9977V21.3308C215.044 20.7535 214.148 20.2672 213.145 19.8722C212.173 19.4771 210.972 19.2796 209.544 19.2796C208.389 19.2796 207.311 19.5683 206.308 20.1457C205.335 20.7231 204.56 21.498 203.983 22.4704C203.406 23.4428 203.117 24.552 203.117 25.7979C203.117 27.682 203.725 29.2318 204.94 30.4473C206.156 31.6628 207.69 32.2706 209.544 32.2706C210.972 32.2706 212.173 32.0883 213.145 31.7236C214.148 31.3286 215.044 30.8424 215.835 30.265V35.5525C215.196 36.0995 214.33 36.6313 213.236 37.1479C212.142 37.6341 210.744 37.8772 209.043 37.8772C206.703 37.8772 204.621 37.3303 202.798 36.2363C201.005 35.1119 199.577 33.6381 198.513 31.8148C197.48 29.9611 196.963 27.9555 196.963 25.7979C196.963 24.1873 197.252 22.6527 197.829 21.1941C198.437 19.7354 199.288 18.4439 200.382 17.3196C201.476 16.1648 202.752 15.2532 204.211 14.5846C205.7 13.9161 207.311 13.5818 209.043 13.5818ZM233.748 13.5818C236.088 13.5818 238.048 14.3719 239.629 15.9521C241.209 17.5323 241.999 19.9026 241.999 23.063V37.1935H236.21L236.164 23.8379C236.164 22.2881 235.784 21.1333 235.025 20.3736C234.295 19.6139 233.277 19.234 231.971 19.234C230.937 19.234 229.965 19.5683 229.053 20.2369C228.172 20.9054 227.412 21.6955 226.774 22.6071V37.1935H220.985V4.37418H226.774V17.4563C227.473 16.5143 228.415 15.633 229.6 14.8125C230.816 13.9921 232.199 13.5818 233.748 13.5818ZM60.1858 23.1161C60.7876 25.8662 63.1788 27.4929 65.7653 26.9116C68.3518 26.3303 69.9134 23.759 69.3233 21.0626C68.7216 18.3125 66.2244 16.6082 63.6379 17.1895C61.1044 17.7588 59.584 20.366 60.1858 23.1161Z" fill="white"/>
<path d="M27.1564 23.1359C23.4217 23.9745 21.1815 27.7235 22.0497 31.6875C22.9038 35.5871 26.5027 37.9913 30.2268 37.1551C34.0146 36.3047 36.3066 32.5891 35.4395 28.6811C35.0254 26.7904 33.9499 25.1834 32.3956 24.1348C30.8306 23.0886 28.9707 22.7285 27.1564 23.1359ZM29.7563 35.0066C27.1674 35.5879 24.774 33.9612 24.1717 31.2111C23.5694 28.4609 25.0912 25.8538 27.6269 25.2844C30.2158 24.7032 32.7258 26.405 33.3175 29.1576C33.9081 31.854 32.3451 34.4253 29.7563 35.0066Z" fill="white"/>
</svg>
