<svg width="56" height="56" viewBox="0 0 56 56" fill="none" xmlns="http://www.w3.org/2000/svg">
<path fill-rule="evenodd" clip-rule="evenodd" d="M56 28C56 43.464 43.464 56 28 56C12.536 56 0 43.464 0 28C0 12.536 12.536 0 28 0C43.464 0 56 12.536 56 28ZM28 17.5C26.709 17.5 25.5766 18.1973 24.9661 19.2525C23.9982 20.9258 21.8572 21.4975 20.184 20.5296C18.5108 19.5617 17.939 17.4207 18.9069 15.7475C20.7171 12.6181 24.1092 10.5 28 10.5C33.799 10.5 38.5 15.201 38.5 21C38.5 25.5718 35.5782 29.4611 31.5 30.9025V31.5C31.5 33.433 29.933 35 28 35C26.0671 35 24.5 33.433 24.5 31.5V28C24.5 26.067 26.0671 24.5 28 24.5C29.933 24.5 31.5 22.933 31.5 21C31.5 19.067 29.933 17.5 28 17.5ZM28 45.5C29.933 45.5 31.5 43.933 31.5 42C31.5 40.067 29.933 38.5 28 38.5C26.067 38.5 24.5 40.067 24.5 42C24.5 43.933 26.067 45.5 28 45.5Z" fill="#111827"/>
</svg>
