<svg width="193" height="39" viewBox="0 0 193 39" fill="none" xmlns="http://www.w3.org/2000/svg">
<ellipse cx="18.7149" cy="19.9634" rx="18.7149" ry="18.949" fill="#F2994A"/>
<path fill-rule="evenodd" clip-rule="evenodd" d="M50.1544 10.895C49.85 10.9634 49.5185 10.8671 49.3026 10.6101L45.7447 6.34889L42.5528 20.0552C42.4747 20.3873 42.22 20.6423 41.8988 20.7145L32.9205 22.7322C32.65 22.793 32.3664 22.7129 32.157 22.5263L25.445 16.4571L15.1056 18.7807C14.8097 18.8472 14.5054 18.7538 14.2989 18.5395C14.082 18.3186 13.9976 18.0139 14.0663 17.7198L15.0299 13.5302C15.0996 13.1999 15.3627 12.943 15.684 12.8708L32.9021 9.02831L33.5322 7.28669C33.63 7.00404 33.8686 6.79759 34.1561 6.73299L44.1657 4.48348L41.9662 1.84965L39.8188 2.33223C39.3539 2.43673 38.8891 2.13668 38.786 1.66547C38.6829 1.19425 38.9789 0.723215 39.4439 0.618719L42.0985 0.0221443C42.4197 -0.0500526 42.7447 0.0567003 42.9503 0.307131L50.6077 9.48078C50.9194 9.8512 50.8712 10.4014 50.5208 10.7048C50.4174 10.8 50.2896 10.8646 50.1544 10.895ZM32.9664 20.9152L40.9809 19.114L42.4884 12.6268L32.1829 14.9428C31.8701 15.0131 31.5536 14.9045 31.3414 14.6645C31.1377 14.4227 31.073 14.0866 31.184 13.783L32.1949 10.985L16.5915 14.4647L16.0645 16.7584L25.4908 14.64C25.7614 14.5792 26.045 14.6593 26.2544 14.8459L32.9664 20.9152ZM33.3531 12.8731L42.9147 10.7243L43.9489 6.32999L34.996 8.34201L33.3531 12.8731ZM48.8941 5.21853C49.3591 5.11404 49.6551 4.643 49.552 4.17178L48.939 1.37019C48.8359 0.898969 48.3711 0.598924 47.9061 0.70342C47.4411 0.807916 47.1451 1.27895 47.2482 1.75017L47.8612 4.55177C47.9643 5.02298 48.4291 5.32303 48.8941 5.21853ZM58.3482 4.63349C60.9171 4.63349 63.171 5.15455 65.1098 6.19667C67.0487 7.2388 68.5513 8.69292 69.6176 10.559C70.7082 12.4252 71.2535 14.6185 71.2535 17.1389C71.2535 19.5382 70.7446 21.7194 69.7267 23.6825C68.7088 25.6213 67.2547 27.1603 65.3643 28.2993C63.4739 29.4384 61.2201 30.0079 58.6026 30.0079C56.9304 30.0079 55.2581 29.9231 53.5859 29.7535C51.9379 29.5838 50.3747 29.3536 48.8964 29.0628V22.6164H49.0392C47.7036 21.8559 46.6802 20.5135 46.3087 18.8156C45.6169 15.6542 47.4019 12.6643 50.3777 11.9955C51.8234 11.6706 53.3054 11.9578 54.5523 12.7922C55.7908 13.6285 56.6478 14.91 56.9778 16.4179C57.5703 19.1256 56.2717 21.7161 53.9494 22.7945V24.8821C54.6765 25.0276 55.4278 25.1366 56.2033 25.2093C57.0031 25.2578 57.7544 25.282 58.4572 25.282C60.0568 25.282 61.4261 24.9427 62.5651 24.2641C63.7042 23.5613 64.5766 22.604 65.1825 21.3923C65.7884 20.1805 66.0914 18.8233 66.0914 17.3207C66.0914 15.7696 65.7884 14.4003 65.1825 13.2128C64.5766 12.0253 63.7042 11.0922 62.5651 10.4136C61.4261 9.7108 60.0568 9.35939 58.4572 9.35939C57.7302 9.35939 56.9667 9.39574 56.167 9.46845C56.02 9.48181 55.875 9.496 55.7321 9.511V4.71688C56.5937 4.66129 57.4657 4.63349 58.3482 4.63349ZM83.1773 4.74255C84.583 4.74255 85.8674 4.93643 87.0307 5.3242C88.194 5.71197 89.1756 6.16032 89.9753 6.66926V11.6496C89.1029 11.1165 88.1698 10.6196 87.1761 10.1592C86.1825 9.69869 85.0555 9.46845 83.7953 9.46845C83.1652 9.46845 82.5351 9.56539 81.9049 9.75927C81.2991 9.95316 80.7901 10.244 80.3781 10.6317C79.9903 11.0195 79.7965 11.5163 79.7965 12.1222C79.7965 12.922 80.1479 13.5279 80.8507 13.9399C81.5535 14.3519 82.4139 14.7639 83.4318 15.1759L86.4127 16.4119C88.1092 17.1389 89.3573 18.0235 90.1571 19.0657C90.9569 20.1078 91.3567 21.2953 91.3567 22.6283C91.3567 24.0824 90.9326 25.3669 90.0844 26.4817C89.2604 27.5723 88.1456 28.4326 86.7399 29.0628C85.3585 29.6929 83.8195 30.0079 82.1231 30.0079C80.6932 30.0079 79.3239 29.7656 78.0152 29.2809C76.7065 28.7962 75.5674 28.2024 74.598 27.4996V22.5192C75.6643 23.2947 76.8397 23.9491 78.1242 24.4823C79.4087 25.0154 80.778 25.282 82.2321 25.282C83.25 25.282 84.1225 25.0882 84.8495 24.7004C85.5766 24.2884 85.9401 23.6825 85.9401 22.8827C85.9401 22.2526 85.6372 21.7437 85.0313 21.3559C84.4497 20.9439 83.8074 20.6046 83.1046 20.338L79.3602 18.8839C77.4699 18.1568 76.1854 17.2117 75.5068 16.0484C74.8525 14.8608 74.5253 13.5521 74.5253 12.1222C74.5253 10.6439 74.9252 9.35939 75.7249 8.2688C76.5489 7.15397 77.6153 6.29362 78.924 5.68773C80.2327 5.05761 81.6505 4.74255 83.1773 4.74255ZM106.152 10.7408C107.607 10.7408 108.952 11.1165 110.188 11.8678C111.448 12.5948 112.454 13.6733 113.205 15.1032C113.98 16.5088 114.368 18.2295 114.368 20.2653C114.368 22.3011 113.98 24.0581 113.205 25.5365C112.454 27.0149 111.424 28.1539 110.115 28.9537C108.83 29.7292 107.401 30.117 105.825 30.117C104.807 30.117 103.789 29.8746 102.772 29.3899C101.778 28.881 100.942 28.2509 100.263 27.4996V38.2964H95.6464V11.2134H100.263V14.3034C100.796 13.3098 101.572 12.4736 102.59 11.795C103.608 11.0922 104.795 10.7408 106.152 10.7408ZM104.989 15.3576C104.165 15.3576 103.39 15.5758 102.663 16.012C101.935 16.424 101.342 17.0178 100.881 17.7933C100.445 18.5688 100.239 19.5019 100.263 20.5925V23.2463C100.918 23.9249 101.62 24.4944 102.372 24.9549C103.147 25.3911 103.983 25.6092 104.88 25.6092C105.825 25.6092 106.649 25.3547 107.352 24.8458C108.055 24.3369 108.6 23.6825 108.988 22.8827C109.376 22.0587 109.57 21.1863 109.57 20.2653C109.57 18.8839 109.146 17.7206 108.297 16.7754C107.473 15.8302 106.371 15.3576 104.989 15.3576ZM126.038 10.7408C127.031 10.7408 128.037 10.971 129.055 11.4315C130.073 11.892 130.921 12.51 131.6 13.2855V11.2134H136.216V29.5717H131.6V26.4817C131.066 27.4753 130.291 28.3357 129.273 29.0628C128.255 29.7656 127.068 30.117 125.71 30.117C124.232 30.117 122.863 29.7413 121.603 28.99C120.366 28.2387 119.373 27.1482 118.622 25.7183C117.87 24.2884 117.495 22.5556 117.495 20.5198C117.495 18.484 117.87 16.7391 118.622 15.2849C119.397 13.8308 120.427 12.716 121.712 11.9405C123.02 11.1407 124.462 10.7408 126.038 10.7408ZM126.983 15.2486C126.013 15.2486 125.177 15.5031 124.474 16.012C123.796 16.4967 123.263 17.1389 122.875 17.9387C122.487 18.7385 122.293 19.5988 122.293 20.5198C122.293 21.9012 122.705 23.0766 123.529 24.046C124.377 25.0154 125.492 25.5002 126.874 25.5002C127.698 25.5002 128.461 25.282 129.164 24.8458C129.891 24.4096 130.473 23.8037 130.909 23.0281C131.369 22.2284 131.6 21.2711 131.6 20.1563V17.5388C130.945 16.836 130.23 16.2786 129.455 15.8666C128.703 15.4546 127.879 15.2486 126.983 15.2486ZM148.54 5.8695V11.2134H153.63V15.0668H148.54V22.9918C148.54 23.8158 148.722 24.4701 149.085 24.9549C149.473 25.4153 150.043 25.6456 150.794 25.6456C151.448 25.6456 152.006 25.5729 152.466 25.4274C152.951 25.282 153.399 25.076 153.811 24.8094V28.4811C153.351 28.9416 152.769 29.3293 152.066 29.6444C151.388 29.9595 150.527 30.117 149.485 30.117C147.837 30.117 146.492 29.5959 145.45 28.5538C144.432 27.4875 143.923 26.0333 143.923 24.1914V15.0668H140.615V12.7039C141.778 12.2919 142.845 11.5163 143.814 10.3773C144.808 9.23821 145.596 7.73562 146.177 5.8695H148.54ZM166.717 10.7408C168.074 10.7408 169.189 10.9589 170.061 11.3952C170.934 11.8314 171.624 12.2555 172.133 12.6675V16.9208C171.503 16.4604 170.788 16.0726 169.988 15.7575C169.213 15.4425 168.256 15.2849 167.117 15.2849C166.196 15.2849 165.335 15.5152 164.535 15.9756C163.76 16.4361 163.142 17.0541 162.681 17.8297C162.221 18.6052 161.991 19.4898 161.991 20.4834C161.991 21.986 162.475 23.222 163.445 24.1914C164.414 25.1609 165.638 25.6456 167.117 25.6456C168.256 25.6456 169.213 25.5002 169.988 25.2093C170.788 24.8943 171.503 24.5065 172.133 24.046V28.263C171.624 28.6992 170.934 29.1233 170.061 29.5353C169.189 29.9231 168.074 30.117 166.717 30.117C164.851 30.117 163.19 29.6808 161.736 28.8083C160.306 27.9116 159.167 26.7362 158.319 25.282C157.495 23.8037 157.083 22.2041 157.083 20.4834C157.083 19.199 157.313 17.9751 157.774 16.8118C158.258 15.6485 158.937 14.6185 159.81 13.7218C160.682 12.8008 161.7 12.0738 162.863 11.5406C164.051 11.0074 165.335 10.7408 166.717 10.7408ZM186.42 10.7408C188.286 10.7408 189.849 11.3709 191.11 12.6312C192.37 13.8914 193 15.7818 193 18.3022V29.5717H188.383L188.347 18.9202C188.347 17.6842 188.044 16.7633 187.438 16.1574C186.856 15.5515 186.044 15.2486 185.002 15.2486C184.178 15.2486 183.403 15.5152 182.676 16.0484C181.973 16.5815 181.367 17.2117 180.858 17.9387V29.5717H176.241V3.39749H180.858V13.8308C181.415 13.0795 182.167 12.3767 183.112 11.7223C184.081 11.068 185.184 10.7408 186.42 10.7408ZM47.9995 18.4357C48.4795 20.629 50.3865 21.9262 52.4493 21.4627C54.5121 20.9991 55.7575 18.9484 55.287 16.7979C54.807 14.6046 52.8155 13.2454 50.7527 13.709C48.7321 14.1631 47.5196 16.2424 47.9995 18.4357Z" fill="#092C4C"/>
<path d="M21.658 18.4514C18.6795 19.1202 16.893 22.1102 17.5854 25.2716C18.2665 28.3816 21.1367 30.299 24.1068 29.6321C27.1276 28.9539 28.9556 25.9906 28.2641 22.8739C27.9338 21.366 27.0761 20.0844 25.8364 19.2481C24.5884 18.4137 23.105 18.1266 21.658 18.4514ZM23.7315 27.9186C21.6669 28.3822 19.7581 27.0849 19.2777 24.8916C18.7973 22.6983 20.011 20.619 22.0333 20.165C24.098 19.7014 26.0998 21.0587 26.5717 23.2539C27.0427 25.4043 25.7962 27.455 23.7315 27.9186Z" fill="white"/>
</svg>
