<svg width="65" height="13" viewBox="0 0 65 13" fill="none" xmlns="http://www.w3.org/2000/svg">
<path d="M1 6.03868C1.42134 6.03868 1.81328 5.81067 2.20524 5.70184C2.85201 5.52226 3.47112 5.25295 4.1352 5.12003C4.76999 4.99297 5.45906 4.87505 6.11243 4.87505C7.08962 4.87505 8.00133 4.79696 8.97192 4.70493C9.55344 4.6498 10.0926 4.54893 10.6656 4.42594C12.004 4.1386 13.4091 4.07783 14.7342 3.75906C16.1732 3.41289 17.7871 3.06282 19.2952 3.16704C19.7736 3.20011 20.1812 3.36746 20.662 3.31675C21.8892 3.18731 23.1111 3.01386 24.3407 2.90166C27.569 2.60705 30.8115 2.61502 34.0535 2.64307C35.8151 2.65832 37.5416 2.88726 39.2369 2.42192C40.3078 2.12795 41.3737 2.01428 42.4942 1.91836C43.4411 1.8373 44.4555 1.69864 45.4088 1.81629C46.4279 1.94205 47.4495 1.98554 48.4613 1.79928C49.9613 1.52313 51.512 1.32397 53.0381 1.17664C54.8773 0.999062 56.7077 1.23157 58.5444 1.09157C59.8025 0.995678 61.1968 0.902996 62.4122 1.21406C62.5934 1.26046 62.821 1.32294 62.999 1.32294C63.2129 1.32294 63.5972 1.2586 63.7592 1.37057C63.8499 1.43324 64.1948 1.50667 63.8498 1.50667C62.6381 1.50667 61.4939 1.9015 60.2931 1.98301C59.4274 2.04176 58.5496 2.1502 57.7015 2.30283C56.7149 2.48039 55.6019 2.36408 54.6017 2.36408C52.994 2.36408 51.3846 2.32049 49.7768 2.30283C49.2375 2.29691 48.7046 2.26918 48.1856 2.13271C47.9267 2.06465 47.6895 1.94432 47.4215 1.90135C46.9717 1.82925 46.4762 1.87413 46.0193 1.87413C44.6917 1.87413 43.3865 2.04489 42.1357 2.43893C41.2042 2.73241 40.3031 3.20764 39.3393 3.40521C38.3483 3.60835 37.4309 3.92354 36.5113 4.29664C36.0452 4.48576 35.5697 4.67616 35.0776 4.81041C34.6739 4.92053 34.2376 4.90852 33.8172 4.94991C31.8755 5.14107 29.9416 5.48638 28.1219 6.10673C27.0117 6.48518 26.0255 6.69186 24.8527 6.78721C24.3022 6.83197 23.8101 7.03797 23.2891 7.18189C22.3966 7.42838 21.4822 7.60444 20.5793 7.81814C18.795 8.24041 17.0601 8.81232 15.2817 9.25736C14.7805 9.38278 14.363 9.58077 13.8953 9.76772C13.5034 9.92435 13.0662 9.97637 12.6507 10.0671C11.7918 10.2547 11.0752 10.4253 10.1811 10.4176C8.98623 10.4073 8.0731 10.7009 6.96712 11.03C6.41343 11.1948 5.58211 11.5068 5.26955 11.9793C5.20307 12.0798 6.21763 11.7831 6.28573 11.7615C7.02455 11.5274 7.7831 11.4559 8.54654 11.3056C9.48355 11.1212 10.5065 11.0462 11.3706 10.666C11.9106 10.4283 12.389 10.0977 12.9342 9.86979C13.146 9.78128 13.3694 9.77738 13.5881 9.71328C14.1361 9.55266 14.6641 9.40085 15.2266 9.27097C15.492 9.20968 15.9088 9.15851 16.1364 9.00558C16.438 8.80298 16.7679 8.79179 17.0935 8.65853C17.6161 8.44471 18.2657 8.73339 18.795 8.73339" stroke="#092C4C" stroke-linecap="square"/>
</svg>
