<svg width="1440" height="425" viewBox="0 0 1440 425" fill="none" xmlns="http://www.w3.org/2000/svg">
<path d="M2.51172 40.2594C6.75219 39.8353 9.98775 37.3601 13.6812 35.4331C21.8109 31.1915 32.0291 30.82 40.9844 30.4688C65.6646 29.501 89.302 30.2425 113.379 35.8467C146.772 43.6192 179.578 54.5096 212.526 63.9773C260.385 77.7301 304.119 93.6361 345.043 122.721C379.033 146.877 404.997 168.922 427.228 204.492C444.417 231.994 463.852 261.006 484.593 285.988C493.798 297.077 511.003 309.398 523.755 315.774" stroke="#E0E0E0" stroke-opacity="0.1" stroke-width="10" stroke-linecap="round"/>
<path d="M930.82 206.561C952.77 206.561 974.523 210.387 996.458 207.526C1042.46 201.526 1094.3 186.784 1134.35 163.262C1149.72 154.236 1162.27 141.382 1177.1 131.546C1192.78 121.145 1210.65 110.349 1223.16 96.107C1244.84 71.41 1268.23 48.2168 1299.55 35.4332C1334.42 21.203 1360.45 5.51001 1398.7 5.51001C1413.68 5.51001 1425.73 15.4384 1439.65 15.4384" stroke="#E0E0E0" stroke-opacity="0.1" stroke-width="10" stroke-linecap="round"/>
<path d="M461.5 256.617C389.5 166.998 222.356 191.342 194.599 207.802C182.23 215.137 173.73 224.513 163.159 233.864C153.088 242.773 141.103 248.686 130.34 256.617C103.261 276.57 75.3461 303.111 67.5979 337.01C65.3545 346.824 -7.41293 414.954 -16.5 419.498" stroke="#E0E0E0" stroke-opacity="0.1" stroke-width="10" stroke-linecap="round"/>
<path d="M1027.5 201.498C1114.5 179.498 1210.91 209.664 1257.08 218.971C1273.76 222.334 1299.45 226.321 1311.96 239.656C1351 281.272 1375.22 336.725 1408.49 382.791C1410.37 385.394 1439.66 402.742 1441.5 405.498" stroke="#E0E0E0" stroke-opacity="0.1" stroke-width="10" stroke-linecap="round"/>
</svg>
