<svg width="56" height="56" viewBox="0 0 56 56" fill="none" xmlns="http://www.w3.org/2000/svg">
<path d="M0 3.5C0 1.567 1.567 0 3.5 0H11.0351C12.746 0 14.2062 1.23695 14.4874 2.9246L17.075 18.4502C17.3276 19.9658 16.5622 21.4689 15.1879 22.1561L9.76941 24.8653C13.6765 34.5741 21.4259 42.3235 31.1347 46.2306L33.8439 40.8121C34.5311 39.4378 36.0342 38.6724 37.5498 38.925L53.0754 41.5126C54.7631 41.7938 56 43.254 56 44.9649V52.5C56 54.433 54.433 56 52.5 56H45.5C20.371 56 0 35.629 0 10.5V3.5Z" fill="#092C4C"/>
</svg>
