<svg width="164" height="48" viewBox="0 0 164 48" fill="none" xmlns="http://www.w3.org/2000/svg">
<path d="M157.942 47.0978H6.47471C3.08184 47.0978 0.416016 44.5172 0.416016 41.2328V6.04269C0.416016 2.75828 3.08184 0.177673 6.47471 0.177673H157.942C161.335 0.177673 164.001 2.75828 164.001 6.04269V41.2328C164.001 44.5172 161.335 47.0978 157.942 47.0978Z" fill="black"/>
<path d="M157.942 1.11608C160.729 1.11608 163.031 3.34478 163.031 6.04269V41.2328C163.031 43.9307 160.729 46.1594 157.942 46.1594H6.47471C3.68771 46.1594 1.38541 43.9307 1.38541 41.2328V6.04269C1.38541 3.34478 3.68771 1.11608 6.47471 1.11608H157.942ZM157.942 0.177673H6.47471C3.08184 0.177673 0.416016 2.87558 0.416016 6.04269V41.2328C0.416016 44.5172 3.08184 47.0978 6.47471 47.0978H157.942C161.335 47.0978 164.001 44.5172 164.001 41.2328V6.04269C164.001 2.87558 161.335 0.177673 157.942 0.177673Z" fill="#A6A6A6"/>
<path d="M57.8525 12.1424C57.8525 13.0808 57.6101 13.9019 57.0043 14.4884C56.2772 15.1922 55.429 15.5441 54.3384 15.5441C53.2479 15.5441 52.3996 15.1922 51.6726 14.4884C50.9456 13.7846 50.582 12.9635 50.582 11.9078C50.582 10.8521 50.9456 10.031 51.6726 9.32716C52.3996 8.62335 53.2479 8.27145 54.3384 8.27145C54.8231 8.27145 55.3078 8.38875 55.7925 8.62335C56.2772 8.85796 56.6407 9.09256 56.8831 9.44446L56.2772 10.031C55.7925 9.44446 55.1866 9.20986 54.3384 9.20986C53.6114 9.20986 52.8843 9.44446 52.3996 10.031C51.7938 10.5002 51.5514 11.204 51.5514 12.0251C51.5514 12.8462 51.7938 13.55 52.3996 14.0192C53.0055 14.4884 53.6114 14.8403 54.3384 14.8403C55.1866 14.8403 55.7925 14.6057 56.3984 14.0192C56.7619 13.6673 57.0043 13.1981 57.0043 12.6116H54.3384V11.6732H57.8525V12.1424ZM63.4265 9.20986H60.1548V11.4386H63.1841V12.2597H60.1548V14.4884H63.4265V15.4268H59.1854V8.38875H63.4265V9.20986ZM67.4252 15.4268H66.4558V9.20986H64.3959V8.38875H69.4852V9.20986H67.4252V15.4268ZM72.9992 15.4268V8.38875H73.9686V15.4268H72.9992ZM78.0885 15.4268H77.1191V9.20986H75.0592V8.38875H80.0273V9.20986H77.9673V15.4268H78.0885ZM89.6 14.4884C88.873 15.1922 88.0248 15.5441 86.9342 15.5441C85.8437 15.5441 84.9954 15.1922 84.2684 14.4884C83.5413 13.7846 83.1778 12.9635 83.1778 11.9078C83.1778 10.8521 83.5413 10.031 84.2684 9.32716C84.9954 8.62335 85.8437 8.27145 86.9342 8.27145C88.0248 8.27145 88.873 8.62335 89.6 9.32716C90.3271 10.031 90.6906 10.8521 90.6906 11.9078C90.6906 12.9635 90.3271 13.7846 89.6 14.4884ZM84.9954 13.9019C85.4801 14.3711 86.2072 14.723 86.9342 14.723C87.6613 14.723 88.3883 14.4884 88.873 13.9019C89.3577 13.4327 89.7212 12.7289 89.7212 11.9078C89.7212 11.0867 89.4789 10.3829 88.873 9.91366C88.3883 9.44446 87.6613 9.09256 86.9342 9.09256C86.2072 9.09256 85.4801 9.32716 84.9954 9.91366C84.5107 10.3829 84.1472 11.0867 84.1472 11.9078C84.1472 12.7289 84.3896 13.4327 84.9954 13.9019ZM92.0235 15.4268V8.38875H93.1141L96.6281 13.9019V8.38875H97.5975V15.4268H96.6281L92.8717 9.67906V15.4268H92.0235Z" fill="white" stroke="white" stroke-width="0.242348" stroke-miterlimit="10"/>
<path d="M82.9338 25.7491C80.0256 25.7491 77.7233 27.8605 77.7233 30.7931C77.7233 33.6083 80.0256 35.837 82.9338 35.837C85.8419 35.837 88.1443 33.7256 88.1443 30.7931C88.1443 27.7432 85.8419 25.7491 82.9338 25.7491ZM82.9338 33.7256C81.3585 33.7256 80.0256 32.4353 80.0256 30.6758C80.0256 28.9162 81.3585 27.6259 82.9338 27.6259C84.509 27.6259 85.8419 28.7989 85.8419 30.6758C85.8419 32.4353 84.509 33.7256 82.9338 33.7256ZM71.6646 25.7491C68.7564 25.7491 66.4541 27.8605 66.4541 30.7931C66.4541 33.6083 68.7564 35.837 71.6646 35.837C74.5728 35.837 76.8751 33.7256 76.8751 30.7931C76.8751 27.7432 74.5728 25.7491 71.6646 25.7491ZM71.6646 33.7256C70.0893 33.7256 68.7564 32.4353 68.7564 30.6758C68.7564 28.9162 70.0893 27.6259 71.6646 27.6259C73.2399 27.6259 74.5728 28.7989 74.5728 30.6758C74.5728 32.4353 73.2399 33.7256 71.6646 33.7256ZM58.2143 27.274V29.3854H63.4248C63.3036 30.5584 62.8189 31.4969 62.213 32.0834C61.486 32.7872 60.2742 33.6083 58.2143 33.6083C54.9426 33.6083 52.5191 31.145 52.5191 27.9778C52.5191 24.8107 55.0638 22.3474 58.2143 22.3474C59.9107 22.3474 61.2436 23.0512 62.213 23.8723L63.7883 22.3474C62.4554 21.1744 60.7589 20.236 58.3355 20.236C53.9732 20.236 50.2168 23.755 50.2168 27.9778C50.2168 32.2007 53.9732 35.7197 58.3355 35.7197C60.7589 35.7197 62.4554 35.0159 63.9095 33.491C65.3635 32.0834 65.8482 30.0893 65.8482 28.5643C65.8482 28.0951 65.8482 27.6259 65.7271 27.274H58.2143ZM113.227 28.9162C112.743 27.7432 111.531 25.7491 108.865 25.7491C106.199 25.7491 104.018 27.7432 104.018 30.7931C104.018 33.6083 106.199 35.837 109.107 35.837C111.41 35.837 112.864 34.4294 113.348 33.6083L111.652 32.4353C111.046 33.2564 110.319 33.8429 109.107 33.8429C107.896 33.8429 107.169 33.3737 106.563 32.318L113.47 29.5027L113.227 28.9162ZM106.199 30.5584C106.199 28.6816 107.774 27.6259 108.865 27.6259C109.713 27.6259 110.561 28.0951 110.804 28.6816L106.199 30.5584ZM100.504 35.3678H102.806V20.7052H100.504V35.3678ZM96.8688 26.8048C96.2629 26.2183 95.2935 25.6318 94.0818 25.6318C91.5371 25.6318 89.1136 27.8605 89.1136 30.6758C89.1136 33.491 91.416 35.6024 94.0818 35.6024C95.2935 35.6024 96.2629 35.0159 96.7476 34.4294H96.8688V35.1332C96.8688 37.01 95.7782 38.0657 94.0818 38.0657C92.7489 38.0657 91.7795 37.1273 91.5371 36.3062L89.5983 37.1273C90.2042 38.4176 91.6583 40.0598 94.2029 40.0598C96.8688 40.0598 99.0499 38.5349 99.0499 34.8986V25.9837H96.8688V26.8048ZM94.2029 33.7256C92.6277 33.7256 91.2948 32.4353 91.2948 30.6758C91.2948 28.9162 92.6277 27.6259 94.2029 27.6259C95.7782 27.6259 96.9899 28.9162 96.9899 30.6758C96.9899 32.4353 95.7782 33.7256 94.2029 33.7256ZM123.769 20.7052H118.317V35.3678H120.619V29.8546H123.769C126.314 29.8546 128.738 28.0951 128.738 25.2799C128.738 22.4647 126.314 20.7052 123.769 20.7052ZM123.891 27.7432H120.619V22.6993H123.891C125.587 22.6993 126.556 24.1069 126.556 25.1626C126.435 26.4529 125.466 27.7432 123.891 27.7432ZM137.826 25.6318C136.129 25.6318 134.433 26.3356 133.827 27.8605L135.887 28.6816C136.371 27.8605 137.099 27.6259 137.947 27.6259C139.158 27.6259 140.249 28.3297 140.37 29.5027V29.62C140.007 29.3854 139.037 29.0335 138.068 29.0335C135.887 29.0335 133.706 30.2065 133.706 32.318C133.706 34.3121 135.523 35.6024 137.462 35.6024C139.037 35.6024 139.764 34.8986 140.37 34.1948H140.491V35.3678H142.673V29.7373C142.43 27.1567 140.37 25.6318 137.826 25.6318ZM137.583 33.7256C136.856 33.7256 135.766 33.3737 135.766 32.4353C135.766 31.2623 137.099 30.9104 138.189 30.9104C139.158 30.9104 139.643 31.145 140.249 31.3796C140.007 32.7872 138.795 33.7256 137.583 33.7256ZM150.306 25.9837L147.762 32.318H147.641L144.975 25.9837H142.551L146.55 34.8986L144.248 39.8252H146.55L152.73 25.9837H150.306ZM129.949 35.3678H132.252V20.7052H129.949V35.3678Z" fill="white"/>
<path d="M13.0179 8.97523C12.6544 9.32714 12.5332 9.91364 12.5332 10.6174V36.5408C12.5332 37.2446 12.7756 37.8311 13.1391 38.183L13.2602 38.3003L28.2858 23.7551V23.5205L13.0179 8.97523Z" fill="url(#paint0_linear_634_693)"/>
<path d="M33.1341 28.6817L28.166 23.8724V23.5205L33.1341 18.7112L33.2553 18.8285L39.1928 22.1129C40.8893 23.0513 40.8893 24.5762 39.1928 25.5146L33.1341 28.6817Z" fill="url(#paint1_linear_634_693)"/>
<path d="M33.2536 28.5644L28.1643 23.6378L13.0176 38.3003C13.6234 38.8868 14.4717 38.8868 15.5622 38.4176L33.2536 28.5644Z" fill="url(#paint2_linear_634_693)"/>
<path d="M33.2536 18.7113L15.5622 8.97533C14.4717 8.38883 13.6234 8.50613 13.0176 9.09263L28.1643 23.6379L33.2536 18.7113Z" fill="url(#paint3_linear_634_693)"/>
<path opacity="0.2" d="M33.1325 28.4471L15.5622 38.0657C14.5928 38.6522 13.7446 38.5349 13.1388 38.0657L13.0176 38.183L13.1388 38.3003C13.7446 38.7695 14.5928 38.8868 15.5622 38.3003L33.1325 28.4471Z" fill="black"/>
<path opacity="0.12" d="M13.0179 38.0657C12.6544 37.7138 12.5332 37.1273 12.5332 36.4235V36.5408C12.5332 37.2446 12.7756 37.8311 13.1391 38.183V38.0657H13.0179ZM39.1915 25.1627L33.1328 28.4471L33.254 28.5644L39.1915 25.28C40.0397 24.8108 40.4032 24.2243 40.4032 23.6378C40.4032 24.2243 39.9185 24.6935 39.1915 25.1627Z" fill="black"/>
<path opacity="0.25" d="M15.5626 9.09255L39.1915 22.1129C39.9185 22.5821 40.4032 23.0513 40.4032 23.6378C40.4032 23.0513 40.0397 22.4648 39.1915 21.9956L15.5626 8.97525C13.8661 8.03685 12.5332 8.74065 12.5332 10.6175V10.7348C12.5332 8.97525 13.8661 8.15415 15.5626 9.09255Z" fill="white"/>
<defs>
<linearGradient id="paint0_linear_634_693" x1="26.8317" y1="10.3946" x2="7.15557" y2="30.7193" gradientUnits="userSpaceOnUse">
<stop stop-color="#00A0FF"/>
<stop offset="0.007" stop-color="#00A1FF"/>
<stop offset="0.26" stop-color="#00BEFF"/>
<stop offset="0.512" stop-color="#00D2FF"/>
<stop offset="0.76" stop-color="#00DFFF"/>
<stop offset="1" stop-color="#00E3FF"/>
</linearGradient>
<linearGradient id="paint1_linear_634_693" x1="41.4152" y1="23.639" x2="12.0947" y2="23.639" gradientUnits="userSpaceOnUse">
<stop stop-color="#FFE000"/>
<stop offset="0.409" stop-color="#FFBD00"/>
<stop offset="0.775" stop-color="#FFA500"/>
<stop offset="1" stop-color="#FF9C00"/>
</linearGradient>
<linearGradient id="paint2_linear_634_693" x1="30.4993" y1="26.331" x2="3.81822" y2="53.8932" gradientUnits="userSpaceOnUse">
<stop stop-color="#FF3A44"/>
<stop offset="1" stop-color="#C31162"/>
</linearGradient>
<linearGradient id="paint3_linear_634_693" x1="9.25755" y1="0.384257" x2="21.1725" y2="12.6927" gradientUnits="userSpaceOnUse">
<stop stop-color="#32A071"/>
<stop offset="0.069" stop-color="#2DA771"/>
<stop offset="0.476" stop-color="#15CF74"/>
<stop offset="0.801" stop-color="#06E775"/>
<stop offset="1" stop-color="#00F076"/>
</linearGradient>
</defs>
</svg>
