<svg width="42" height="44" viewBox="0 0 42 44" fill="none" xmlns="http://www.w3.org/2000/svg">
<g filter="url(#filter0_d_1036_2046)">
<path d="M24.245 0C27.4225 0 30 3.0525 30 6.8187C30 10.5826 27.4225 13.6374 24.245 13.6374C18.4919 13.6374 22.3266 26.8179 30 26.8179V30C16.3052 30.0023 10.9389 0 24.245 0ZM7.6667 0C10.8422 0 13.4198 3.0525 13.4198 6.8187C13.4198 10.5826 10.8422 13.6374 7.6667 13.6374C1.91168 13.6374 5.74639 26.8179 13.4198 26.8179V30C-0.273102 30.0023 -5.63933 0 7.6667 0Z" fill="#092C4C"/>
</g>
<defs>
<filter id="filter0_d_1036_2046" x="-4" y="-2" width="46" height="46" filterUnits="userSpaceOnUse" color-interpolation-filters="sRGB">
<feFlood flood-opacity="0" result="BackgroundImageFix"/>
<feColorMatrix in="SourceAlpha" type="matrix" values="0 0 0 0 0 0 0 0 0 0 0 0 0 0 0 0 0 0 127 0" result="hardAlpha"/>
<feOffset dx="4" dy="6"/>
<feGaussianBlur stdDeviation="4"/>
<feComposite in2="hardAlpha" operator="out"/>
<feColorMatrix type="matrix" values="0 0 0 0 0 0 0 0 0 0 0 0 0 0 0 0 0 0 0.25 0"/>
<feBlend mode="normal" in2="BackgroundImageFix" result="effect1_dropShadow_1036_2046"/>
<feBlend mode="normal" in="SourceGraphic" in2="effect1_dropShadow_1036_2046" result="shape"/>
</filter>
</defs>
</svg>
