<svg width="178" height="177" viewBox="0 0 178 177" fill="none" xmlns="http://www.w3.org/2000/svg">
<path d="M108.534 174.056H32.9429C27.2981 174.056 22.7246 169.48 22.7246 163.838V10.2183C22.7246 4.57647 27.3011 0 32.9429 0H108.534C114.179 0 118.753 4.57647 118.753 10.2183V163.835C118.756 169.48 114.179 174.056 108.534 174.056Z" fill="#545E73"/>
<path d="M118.756 18.0058H22.7246V138.044H118.756V18.0058Z" fill="#8697CB"/>
<path d="M70.7402 165.053C75.7124 165.053 79.7431 161.022 79.7431 156.05C79.7431 151.078 75.7124 147.047 70.7402 147.047C65.768 147.047 61.7373 151.078 61.7373 156.05C61.7373 161.022 65.768 165.053 70.7402 165.053Z" fill="#323A45"/>
<path d="M70.7402 12.0039H58.7363C57.0768 12.0039 55.7354 10.6625 55.7354 9.00292C55.7354 7.34339 57.0768 6.00195 58.7363 6.00195H70.7402C72.3997 6.00195 73.7411 7.34339 73.7411 9.00292C73.7411 10.6625 72.3997 12.0039 70.7402 12.0039Z" fill="#323A45"/>
<path d="M82.7441 12.0039H79.7432C78.0836 12.0039 76.7422 10.6625 76.7422 9.00292C76.7422 7.34339 78.0836 6.00195 79.7432 6.00195H82.7441C84.4037 6.00195 85.7451 7.34339 85.7451 9.00292C85.7451 10.6625 84.4037 12.0039 82.7441 12.0039Z" fill="#323A45"/>
<path d="M119.926 177C139.814 177 155.937 160.877 155.937 140.988C155.937 121.1 139.814 104.977 119.926 104.977C100.037 104.977 83.9141 121.1 83.9141 140.988C83.9141 160.877 100.037 177 119.926 177Z" fill="#26B999"/>
<path d="M139.645 123.523C138.279 122.574 136.413 122.911 135.467 124.273L118.674 148.401L106.823 138.672C105.545 137.618 103.651 137.807 102.601 139.089C101.547 140.37 101.733 142.261 103.018 143.311L117.38 155.102C117.921 155.543 118.593 155.783 119.283 155.783C119.418 155.783 119.556 155.774 119.694 155.756C120.522 155.639 121.267 155.186 121.747 154.499L140.395 127.703C141.34 126.341 141.004 124.468 139.645 123.523Z" fill="white"/>
</svg>
