<svg width="21" height="20" viewBox="0 0 21 20" fill="none" xmlns="http://www.w3.org/2000/svg">
<path d="M10.4973 6.66512C8.66111 6.66512 7.16262 8.16361 7.16262 9.99981C7.16262 11.836 8.66111 13.3345 10.4973 13.3345C12.3335 13.3345 13.832 11.836 13.832 9.99981C13.832 8.16361 12.3335 6.66512 10.4973 6.66512ZM20.4989 9.99981C20.4989 8.61891 20.5114 7.25051 20.4338 5.8721C20.3563 4.27105 19.9911 2.85012 18.8203 1.67935C17.647 0.506076 16.2286 0.143338 14.6275 0.0657868C13.2466 -0.0117642 11.8782 0.000744099 10.4998 0.000744099C9.11891 0.000744099 7.75051 -0.0117642 6.3721 0.0657868C4.77105 0.143338 3.35012 0.508578 2.17935 1.67935C1.00608 2.85262 0.643338 4.27105 0.565787 5.8721C0.488236 7.25301 0.500744 8.62141 0.500744 9.99981C0.500744 11.3782 0.488236 12.7491 0.565787 14.1275C0.643338 15.7286 1.00858 17.1495 2.17935 18.3203C3.35262 19.4936 4.77105 19.8563 6.3721 19.9338C7.75301 20.0114 9.12141 19.9989 10.4998 19.9989C11.8807 19.9989 13.2491 20.0114 14.6275 19.9338C16.2286 19.8563 17.6495 19.4911 18.8203 18.3203C19.9936 17.147 20.3563 15.7286 20.4338 14.1275C20.5139 12.7491 20.4989 11.3807 20.4989 9.99981ZM10.4973 15.1307C7.65795 15.1307 5.36644 12.8392 5.36644 9.99981C5.36644 7.16045 7.65795 4.86894 10.4973 4.86894C13.3367 4.86894 15.6282 7.16045 15.6282 9.99981C15.6282 12.8392 13.3367 15.1307 10.4973 15.1307ZM15.8383 5.85709C15.1754 5.85709 14.64 5.32174 14.64 4.6588C14.64 3.99587 15.1754 3.46052 15.8383 3.46052C16.5013 3.46052 17.0366 3.99587 17.0366 4.6588C17.0368 4.81622 17.0059 4.97213 16.9458 5.1176C16.8856 5.26308 16.7974 5.39525 16.6861 5.50656C16.5748 5.61787 16.4426 5.70613 16.2971 5.76628C16.1516 5.82643 15.9957 5.85729 15.8383 5.85709Z" fill="#092C4C"/>
</svg>
