<svg width="21" height="22" viewBox="0 0 21 22" fill="none" xmlns="http://www.w3.org/2000/svg">
<path d="M18.01 4.70463C17.8542 4.62782 17.7026 4.54364 17.5557 4.45238C17.1287 4.18325 16.7372 3.86616 16.3896 3.50794C15.5189 2.5586 15.1938 1.59558 15.0748 0.921958H15.0789C14.9795 0.361744 15.0205 0 15.0277 0H11.0639V14.6096C11.0639 14.8051 11.0639 14.9997 11.0557 15.1913C11.0557 15.2148 11.0526 15.2363 11.0516 15.2627C11.0516 15.2724 11.0516 15.2842 11.0485 15.2949V15.3037C11.0069 15.8278 10.8308 16.3341 10.5358 16.778C10.2407 17.2219 9.83568 17.5899 9.35639 17.8496C8.85636 18.1208 8.2908 18.263 7.71551 18.2622C5.86952 18.2622 4.37222 16.827 4.37222 15.0544C4.37222 13.2809 5.86952 11.8456 7.71551 11.8456C8.06522 11.8456 8.41288 11.8984 8.74516 12.0021L8.75029 8.1539C7.74116 8.02979 6.71601 8.10645 5.73952 8.37906C4.76304 8.65167 3.85645 9.1143 3.07696 9.73775C2.39379 10.3034 1.81941 10.9783 1.37967 11.7322C1.21251 12.007 0.580772 13.1127 0.504881 14.9058C0.45668 15.9226 0.777677 16.9785 0.930484 17.4136V17.4233C1.02586 17.6795 1.39916 18.5555 2.00628 19.2937C2.49588 19.8861 3.07434 20.4066 3.72305 20.8384V20.8286L3.73228 20.8384C5.65006 22.0801 7.77807 21.9989 7.77807 21.9989C8.14624 21.9842 9.37998 21.9989 10.7809 21.3664C12.3346 20.6644 13.2186 19.6192 13.2186 19.6192C13.7838 18.9946 14.2333 18.2828 14.5477 17.5143C14.9067 16.6148 15.0256 15.5374 15.0256 15.1072V7.35513C15.0738 7.38251 15.7148 7.78629 15.7148 7.78629C15.7148 7.78629 16.6378 8.35042 18.0766 8.71705C19.1083 8.97809 20.5 9.03382 20.5 9.03382V5.28244C20.0129 5.33328 19.0232 5.18663 18.0089 4.7056L18.01 4.70463Z" fill="#092C4C"/>
</svg>
