<svg width="23" height="18" viewBox="0 0 23 18" fill="none" xmlns="http://www.w3.org/2000/svg">
<path d="M22.642 2.13513C21.8277 2.49594 20.953 2.73973 20.0334 2.84992C20.9822 2.28218 21.6921 1.38861 22.0305 0.33596C21.1391 0.865461 20.1634 1.23817 19.146 1.43789C18.4618 0.707364 17.5556 0.22316 16.568 0.0604525C15.5804 -0.102255 14.5668 0.0656378 13.6844 0.538065C12.802 1.01049 12.1003 1.76102 11.6882 2.67313C11.276 3.58523 11.1766 4.60789 11.4052 5.58232C9.5989 5.49162 7.83186 5.02214 6.21875 4.20432C4.60564 3.38651 3.18251 2.23865 2.04173 0.835242C1.65166 1.5081 1.42738 2.28823 1.42738 3.11906C1.42694 3.86701 1.61113 4.60349 1.9636 5.26318C2.31606 5.92286 2.82591 6.48535 3.44791 6.90073C2.72656 6.87778 2.02112 6.68287 1.39032 6.33221V6.39072C1.39025 7.43974 1.75311 8.45648 2.41734 9.26841C3.08157 10.0803 4.00625 10.6375 5.03449 10.8453C4.36532 11.0264 3.66375 11.053 2.98276 10.9233C3.27286 11.8259 3.83797 12.6152 4.59895 13.1807C5.35994 13.7462 6.27871 14.0595 7.22665 14.0769C5.61747 15.3402 3.63015 16.0254 1.58438 16.0224C1.22199 16.0225 0.859908 16.0013 0.5 15.959C2.57658 17.2941 4.99387 18.0027 7.46264 18C15.8197 18 20.3884 11.0783 20.3884 5.07523C20.3884 4.8802 20.3835 4.68322 20.3747 4.48819C21.2634 3.84553 22.0305 3.04973 22.64 2.13805L22.642 2.13513Z" fill="#092C4C"/>
</svg>
