<svg width="21" height="20" viewBox="0 0 21 20" fill="none" xmlns="http://www.w3.org/2000/svg">
<path fill-rule="evenodd" clip-rule="evenodd" d="M7.929 6.969H11.643V8.819C12.178 7.755 13.55 6.799 15.611 6.799C19.562 6.799 20.5 8.917 20.5 12.803V20H16.5V13.688C16.5 11.475 15.965 10.227 14.603 10.227C12.714 10.227 11.929 11.572 11.929 13.687V20H7.929V6.969ZM1.07 19.83H5.07V6.799H1.07V19.83ZM5.643 2.55C5.64315 2.88528 5.57666 3.21724 5.44739 3.52659C5.31812 3.83594 5.12865 4.11651 4.89 4.352C4.4064 4.83262 3.75181 5.10165 3.07 5.1C2.38939 5.09954 1.73631 4.8312 1.252 4.353C1.01421 4.11671 0.825386 3.83582 0.696344 3.52643C0.567301 3.21704 0.500579 2.88522 0.5 2.55C0.5 1.873 0.77 1.225 1.253 0.747C1.73689 0.268158 2.39024 -0.000299211 3.071 2.50265e-07C3.753 2.50265e-07 4.407 0.269 4.89 0.747C5.372 1.225 5.643 1.873 5.643 2.55Z" fill="#092C4C"/>
</svg>
