<svg width="30" height="30" viewBox="0 0 30 30" fill="none" xmlns="http://www.w3.org/2000/svg">
<g clip-path="url(#clip0_1036_1936)">
<path d="M1.17238 14.8258C1.1717 17.2719 1.81084 19.6603 3.02615 21.7655L1.05615 28.9582L8.41707 27.0282C10.453 28.1365 12.7341 28.7173 15.0522 28.7174H15.0583C22.7107 28.7174 28.9399 22.4905 28.9432 14.8367C28.9446 11.1279 27.5016 7.64044 24.8798 5.01663C22.2585 2.39305 18.7723 0.947432 15.0577 0.94574C7.40443 0.94574 1.17565 7.17237 1.17249 14.8258" fill="url(#paint0_linear_1036_1936)"/>
<path d="M0.676893 14.8213C0.676104 17.3554 1.33815 19.8292 2.59679 22.0098L0.556152 29.4604L8.18101 27.4612C10.2819 28.6066 12.6473 29.2106 15.0542 29.2115H15.0604C22.9874 29.2115 29.4404 22.7605 29.4437 14.8328C29.4451 10.9907 27.9502 7.37785 25.2347 4.66005C22.519 1.94258 18.908 0.444939 15.0604 0.443359C7.13214 0.443359 0.680166 6.89342 0.677006 14.8213H0.676893ZM5.21766 21.6342L4.93296 21.1823C3.73616 19.2793 3.10447 17.0802 3.10537 14.8222C3.10797 8.23274 8.47068 2.87172 15.0649 2.87172C18.2584 2.87308 21.2595 4.11795 23.5168 6.3766C25.774 8.63548 27.0161 11.6382 27.0153 14.8319C27.0123 21.4213 21.6495 26.783 15.0604 26.783H15.0557C12.9102 26.7819 10.8061 26.2057 8.97102 25.1169L8.53432 24.8579L4.00957 26.0442L5.21766 21.6341V21.6342Z" fill="url(#paint1_linear_1036_1936)"/>
<path d="M11.4656 8.81038C11.1963 8.21198 10.913 8.1999 10.657 8.18941C10.4473 8.18038 10.2076 8.18106 9.96817 8.18106C9.7285 8.18106 9.33908 8.27122 9.00992 8.63062C8.68042 8.99036 7.75195 9.8597 7.75195 11.6278C7.75195 13.3961 9.03982 15.1048 9.21935 15.3448C9.39911 15.5844 11.7056 19.329 15.3585 20.7695C18.3944 21.9666 19.0122 21.7285 19.6711 21.6685C20.3301 21.6087 21.7975 20.7994 22.0969 19.9602C22.3965 19.1211 22.3965 18.4018 22.3067 18.2515C22.2169 18.1018 21.9772 18.0119 21.6178 17.8322C21.2583 17.6525 19.4914 16.783 19.162 16.6631C18.8325 16.5432 18.5929 16.4834 18.3532 16.8433C18.1136 17.2026 17.4253 18.0119 17.2156 18.2515C17.006 18.4918 16.7963 18.5217 16.437 18.3419C16.0773 18.1616 14.9199 17.7826 13.5467 16.5583C12.4783 15.6057 11.7571 14.4294 11.5474 14.0695C11.3377 13.7102 11.5249 13.5154 11.7052 13.3364C11.8666 13.1753 12.0647 12.9167 12.2445 12.7069C12.4237 12.497 12.4835 12.3473 12.6034 12.1076C12.7233 11.8677 12.6633 11.6578 12.5736 11.4781C12.4835 11.2983 11.7852 9.52106 11.4656 8.81049" fill="white"/>
</g>
<defs>
<linearGradient id="paint0_linear_1036_1936" x1="14.9997" y1="28.9582" x2="14.9997" y2="0.94574" gradientUnits="userSpaceOnUse">
<stop stop-color="#25D366"/>
<stop offset="1" stop-color="#60D669"/>
</linearGradient>
<linearGradient id="paint1_linear_1036_1936" x1="15" y1="29.4604" x2="15" y2="0.443359" gradientUnits="userSpaceOnUse">
<stop stop-color="#F9F9F9"/>
<stop offset="1" stop-color="white"/>
</linearGradient>
<clipPath id="clip0_1036_1936">
<rect width="28.8876" height="29.1133" fill="white" transform="translate(0.556152 0.443359)"/>
</clipPath>
</defs>
</svg>
